<?xml version="1.0" encoding="UTF-8"?>
<svg viewBox="0 0 208 128" xmlns="http://www.w3.org/2000/svg">
<path d="m15 10c-2.7614 0-5 2.2386-5 5v98c0 2.761 2.2386 5 5 5h178c2.761 0 5-2.239 5-5v-98c0-2.7614-2.239-5-5-5zm-15 5c0-8.2843 6.7157-15 15-15h178c8.284 0 15 6.7157 15 15v98c0 8.284-6.716 15-15 15h-178c-8.2843 0-15-6.716-15-15z"/>
<path d="m145 30v35h-20l30 33 30-33h-20v-35h-20zm8 25.381h4v17h9.9121c-3.9707 4.3672-7.9414 8.7344-11.912 13.102-3.9707-4.3672-7.9414-8.7344-11.912-13.102h9.9121v-17z"/>
<path d="m30 98v-68h20l20 25 20-25h20v68h-20v-39l-20 25-20-25v39z"/>
</svg>
